<?xml version="1.0" encoding="utf-8"?>
<!-- Generator: Adobe Illustrator 22.1.0, SVG Export Plug-In . SVG Version: 6.00 Build 0)  -->
<svg version="1.1" id="Shape_1_copy_1_" xmlns="http://www.w3.org/2000/svg" xmlns:xlink="http://www.w3.org/1999/xlink" x="0px"
	 y="0px" viewBox="0 0 1955 567" style="enable-background:new 0 0 1955 567;" xml:space="preserve">
<style type="text/css">
	.st0{fill-rule:evenodd;clip-rule:evenodd;fill:#FFFFFF;}
</style>
<path class="st0" d="M560.1,495.2c-11-2.2-20.6-6.5-28.8-12.7c-8.2-6.2-14.7-14.9-19.5-25.9c-4.8-11-7.1-25-7.1-42V-0.1H441v416.9
	c0,24.5,3.8,46.1,11.4,64.9c7.6,18.7,18.2,34.2,31.8,46.5c13.6,12.3,29.8,20.9,48.5,25.9c18.7,5,39.3,6.2,61.8,3.7v-60
	C582.5,498.4,571,497.5,560.1,495.2z M1196.5,209.9c-17.5,16.5-29.8,36.7-37.1,60.7c-7.2,24-10.9,55.2-10.9,93.7
	c0,16.5-0.7,30.7-2.2,42.7c-1.5,12-3.5,22.1-6,30.4c-2.5,8.2-5.5,15-9,20.2c-3.5,5.2-7.2,9.9-11.2,13.9c-8.5,8-19.4,14.1-32.6,18.4
	c-13.2,4.3-28.3,5.9-45.3,4.9v63c24,1.5,46.4-1.1,67.4-7.9c21-6.7,38.9-17.4,53.9-31.9c17.5-16.5,29.8-36.6,37.1-60.4
	c7.2-23.7,10.9-54.9,10.9-93.4c0-16.5,0.7-30.7,2.2-42.7c1.5-12,3.5-22.1,6-30.4c2.5-8.2,5.5-15.1,9-20.6c3.5-5.5,7.5-10.5,12-15
	c10-9.5,21.6-15.6,34.8-18.4c13.2-2.7,27.3-3.9,42.3-3.4v-62.2C1266.9,168.6,1226.5,181.4,1196.5,209.9z M101.5,264.5
	c11.7-13,25.5-23.2,41.2-30.7c15.7-7.5,32.6-11.2,50.5-11.2c25.5,0,47.7,6.1,66.6,18.4c19,12.3,33.9,28.9,44.9,49.9h68.1
	c-6.5-19.5-15.5-37.1-27-52.9c-11.5-15.8-25-29.4-40.4-40.8c-15.5-11.4-32.7-20.2-51.7-26.6c-19-6.3-39.2-9.5-60.6-9.5
	c-26.5,0-51.4,5.4-74.9,16.2c-23.5,10.8-43.9,25.3-61.4,43.6c-17.5,18.3-31.3,39.8-41.6,64.6C5.1,310.3,0,336.7,0,364.8
	c0,28.1,5.1,54.4,15.3,78.9c10.2,24.5,24.1,46,41.6,64.2c17.5,18.3,37.9,32.7,61.4,43.2c23.5,10.5,48.4,15.8,74.9,15.8
	c43.4,0,81-11.9,112.7-35.6c31.7-23.7,54-55.1,67-94.1h-68.1c-10.5,21-25.3,37.6-44.6,49.9c-19.2,12.3-41.6,18.4-67,18.4
	c-18,0-34.8-3.6-50.5-10.8c-15.7-7.2-29.5-17.2-41.2-29.9c-11.7-12.7-21-27.7-27.7-44.9c-6.7-17.2-10.1-35.5-10.1-55
	c0-19.5,3.4-37.8,10.1-55C80.5,292.6,89.7,277.5,101.5,264.5z M1920.9,497.5c-10.7-2.2-20.2-6.5-28.5-12.7
	c-8.2-6.2-14.7-14.9-19.5-25.9c-4.8-11-7.1-25-7.1-42V232.4h87.6v-60.7h-87.6V89.2h-63.6v327.7c0,24.5,3.8,46.1,11.4,64.9
	c7.6,18.7,18.1,34.2,31.4,46.5c13.4,12.3,29.4,20.9,48.2,25.9c18.7,5,39.3,6.2,61.8,3.7v-58.5C1943,500.4,1931.7,499.7,1920.9,497.5
	z M1702.7,252.3c-12.5-19.7-27.2-36.4-44.2-49.9c-17-13.5-35.4-23.9-55.4-31.1c-20-7.2-40.4-10.9-61.4-10.9
	c-27,0-52.2,5.4-75.6,16.2c-23.5,10.8-43.9,25.3-61.4,43.7c-17.5,18.3-31.3,39.9-41.6,64.7c-10.2,24.8-15.3,51.3-15.3,79.4
	c0,28.6,5.1,55.2,15.3,79.8c10.2,24.6,24.2,45.9,41.9,64c17.7,18.1,38.6,32.4,62.5,42.9c24,10.5,49.9,15.8,77.9,15.8
	c44.9,0,83-11.4,114.2-34.1c31.2-22.7,54.3-54.9,69.3-96.4H1663c-12.5,22.5-28.3,39.6-47.5,51.4c-19.2,11.8-42.6,17.6-70,17.6
	c-22.5,0-43.6-5.2-63.3-15.7c-19.7-10.5-35.8-25.5-48.3-45l295.8-125.2C1724.1,294.4,1715.1,272,1702.7,252.3z M1413.6,390.6
	c-1.5-8-2.2-16.7-2.2-26.2c0-22,3.9-41.9,11.6-59.6c7.7-17.7,17.8-32.7,30.3-45c12.5-12.2,26.5-21.6,41.9-28.1
	c15.5-6.5,30.9-9.7,46.4-9.7c22,0,42.8,6.1,62.5,18.4c19.7,12.3,35.6,28.9,47.5,49.9L1413.6,390.6z"/>
</svg>
