<?xml version="1.0" encoding="utf-8"?>
<!-- Generator: Adobe Illustrator 22.1.0, SVG Export Plug-In . SVG Version: 6.00 Build 0)  -->
<svg version="1.1" id="Shape_1_copy_1_" xmlns="http://www.w3.org/2000/svg" xmlns:xlink="http://www.w3.org/1999/xlink" x="0px"
	 y="0px" viewBox="0 0 930 292" style="enable-background:new 0 0 930 292;" xml:space="preserve">
<style type="text/css">
	.st0{fill-rule:evenodd;clip-rule:evenodd;fill:#FFFFFF;}
</style>
<path class="st0" d="M871,251.2c-9.9,6.1-21.9,9.1-36.1,9.1c-11.6,0-22.5-2.7-32.6-8.1c-10.2-5.4-18.5-13.1-24.9-23.2l152.5-64.5
	c-2.8-12.9-7.5-24.4-13.9-34.6c-6.4-10.2-14-18.7-22.8-25.7c-8.8-7-18.3-12.3-28.6-16c-10.3-3.7-20.9-5.6-31.7-5.6
	c-13.9,0-26.9,2.8-39,8.3c-12.1,5.6-22.7,13.1-31.7,22.5c-9,9.4-16.2,20.5-21.4,33.3c-5.3,12.8-7.9,26.4-7.9,40.9
	c0,14.7,2.6,28.4,7.9,41.1c5.3,12.7,12.5,23.6,21.6,32.9c9.1,9.3,19.9,16.7,32.2,22.1c12.4,5.4,25.7,8.1,40.2,8.1
	c23.2,0,42.8-5.9,58.9-17.6c16.1-11.7,28-28.3,35.7-49.6h-34C889.1,236.3,880.9,245.2,871,251.2z M765.8,187.7c0-11.3,2-21.6,6-30.7
	c4-9.1,9.2-16.9,15.6-23.2c6.4-6.3,13.6-11.1,21.6-14.5c8-3.3,16-5,23.9-5c11.3,0,22.1,3.2,32.2,9.5c10.2,6.3,18.3,14.9,24.5,25.7
	L767,201.2C766.2,197.1,765.8,192.6,765.8,187.7z M16,17.8c-4.4,0-8.2,1.5-11.4,4.6c-3.2,3.1-4.8,6.8-4.8,11.2v24.7h32.8V33.6
	c0-4.4-1.6-8.1-4.8-11.2C24.5,19.3,20.6,17.8,16,17.8z M-0.2,287.3h32.8V88.4H-0.2V287.3z M229.3,106.2
	c-7.4-7.2-16.1-12.8-26.3-16.8c-10.2-4-21.2-6-33.1-6c-11.9,0-22.9,2-33.1,6c-10.2,4-19,9.6-26.3,16.8c-7.4,7.2-13.2,15.9-17.4,26.1
	c-4.3,10.2-6.4,21.6-6.4,34.2v120.9h32.8v-122c0-14.9,4.5-27.2,13.7-36.9c9.1-9.7,21.4-14.5,36.7-14.5c15.4,0,27.6,4.8,36.5,14.5
	c9,9.7,13.5,22,13.5,36.9v122h32.8V166.4c0-12.6-2.1-24-6.2-34.2C242.3,122.1,236.6,113.4,229.3,106.2z M673.8,107
	c-6.5-7.5-14.6-13.3-24.1-17.4c-9.5-4.1-20.4-6.2-32.7-6.2c-11.6,0-22.2,2.3-32,6.8c-9.8,4.5-18,10.6-24.6,18.3V0h-32.8v287.3h32.8
	V165.7c0-7.5,1.3-14.3,4-20.7c2.7-6.3,6.3-11.8,11-16.4c4.6-4.6,10.1-8.3,16.4-11c6.3-2.7,13.1-4.1,20.6-4.1
	c16.2,0,28.3,5,36.3,14.9c8.1,9.9,12.1,22.6,12.1,38v120.9h32.8V167.6c0-12.4-1.7-23.7-5-34C685.3,123.3,680.3,114.4,673.8,107z
	 M474.1,256.2c-5.5-1.2-10.4-3.3-14.7-6.6c-4.2-3.2-7.6-7.7-10-13.3c-2.4-5.7-3.7-12.9-3.7-21.6v-95h45.2V88.4h-45.2V46h-32.8v168.8
	c0,12.6,1.9,23.7,5.9,33.4c3.9,9.7,9.3,17.6,16.2,23.9c6.9,6.3,15.2,10.8,24.8,13.3c9.7,2.6,20.3,3.2,31.9,1.9v-30.1
	C485.5,257.7,479.6,257.4,474.1,256.2z"/>
</svg>
