<?xml version="1.0" encoding="utf-8"?>
<!-- Generator: Adobe Illustrator 22.1.0, SVG Export Plug-In . SVG Version: 6.00 Build 0)  -->
<svg version="1.1" id="Shape_1_copy_2_1_" xmlns="http://www.w3.org/2000/svg" xmlns:xlink="http://www.w3.org/1999/xlink" x="0px"
	 y="0px" viewBox="0 0 1106 1106" style="enable-background:new 0 0 1106 1106;" xml:space="preserve">
<style type="text/css">
	.st0{fill-rule:evenodd;clip-rule:evenodd;fill:#FFFFFF;}
</style>
<path class="st0" d="M1048.6,1051L1048.6,1051c-0.1-0.5,0-1,0-1.5c0-19.4-4.1-37.3-12.4-53.6c-8.3-16.4-20.5-30.6-36.7-42.8
	c-16.1-12.2-36.1-21.4-59.7-27.8l-323.2-86.7l0-92.6C697.5,719.3,756,643,756,553.1c0-112.1-90.9-203-203-203
	c-112.1,0-203,90.9-203,203c0,0.3,0,0.7,0,1h63c0-0.2,0-0.3,0-0.5c0-77.6,62.9-140.5,140.5-140.5S694,476,694,553.6
	s-62.9,140.5-140.5,140.5c-0.3,0-0.6,0-0.9,0l-0.1,193.2l0.1,0l368.6,98.9c16.4,4.4,29.3,10.3,38.7,17.8c9.4,7.4,16.1,15.9,20,25.5
	c2.8,6.8,4.4,13.9,4.8,21.5l-864.1-0.1c0.5-7.6,2.1-14.7,4.8-21.5c3.9-9.6,10.5-18.1,20-25.5c9.4-7.4,22.3-13.3,38.7-17.8
	l304.5-81.6l0-65.9l-323.1,86.6c-23.7,6.3-43.6,15.6-59.7,27.8c-16.1,12.2-28.4,26.4-36.7,42.8c-8.3,16.4-12.4,34.2-12.4,53.6
	c0,0.5,0,1,0,1.5l-0.1,0l0,55l992.1,0.1L1048.6,1051z"/>
</svg>
